<svg xmlns="http://www.w3.org/2000/svg"  viewBox="0 0 21 21" fill="none">
  <g clip-path="url(#clip0_570_376)">
    <path d="M13.9767 9.86276C15.36 9.86276 16.4683 8.7461 16.4683 7.36276C16.4683 5.97943 15.36 4.86276 13.9767 4.86276C12.5934 4.86276 11.4767 5.97943 11.4767 7.36276C11.4767 8.7461 12.5934 9.86276 13.9767 9.86276ZM7.31002 9.86276C8.69335 9.86276 9.80168 8.7461 9.80168 7.36276C9.80168 5.97943 8.69335 4.86276 7.31002 4.86276C5.92668 4.86276 4.81002 5.97943 4.81002 7.36276C4.81002 8.7461 5.92668 9.86276 7.31002 9.86276ZM7.31002 11.5294C5.36835 11.5294 1.47668 12.5044 1.47668 14.4461V15.6961C1.47668 16.1544 1.85168 16.5294 2.31002 16.5294H12.31C12.7684 16.5294 13.1434 16.1544 13.1434 15.6961V14.4461C13.1434 12.5044 9.25168 11.5294 7.31002 11.5294ZM13.9767 11.5294C13.735 11.5294 13.46 11.5461 13.1684 11.5711C13.185 11.5794 13.1933 11.5961 13.2017 11.6044C14.1517 12.2961 14.81 13.2211 14.81 14.4461V15.6961C14.81 15.9878 14.7517 16.2711 14.66 16.5294H18.9767C19.435 16.5294 19.81 16.1544 19.81 15.6961V14.4461C19.81 12.5044 15.9184 11.5294 13.9767 11.5294Z" fill="#4F4F4F"/>
  </g>
  <defs>
    <clipPath id="clip0_570_376">
      <rect width="20" height="20" fill="white" transform="translate(0.643311 0.69577)"/>
    </clipPath>
  </defs>
</svg>