<svg xmlns="http://www.w3.org/2000/svg" viewBox="0 0 20 20" fill="none">
  <g clip-path="url(#clip0_570_373)">
    <path d="M8.99167 13.575C9.31667 13.9 9.84167 13.9 10.1667 13.575L13.1583 10.5833C13.4833 10.2583 13.4833 9.73333 13.1583 9.40833L10.1667 6.41667C9.84167 6.09167 9.31667 6.09167 8.99167 6.41667C8.66667 6.74167 8.66667 7.26667 8.99167 7.59167L10.5583 9.16667H3.33333C2.875 9.16667 2.5 9.54167 2.5 10C2.5 10.4583 2.875 10.8333 3.33333 10.8333H10.5583L8.99167 12.4C8.66667 12.725 8.675 13.2583 8.99167 13.575ZM15.8333 2.5H4.16667C3.24167 2.5 2.5 3.25 2.5 4.16667V6.66667C2.5 7.125 2.875 7.5 3.33333 7.5C3.79167 7.5 4.16667 7.125 4.16667 6.66667V5C4.16667 4.54167 4.54167 4.16667 5 4.16667H15C15.4583 4.16667 15.8333 4.54167 15.8333 5V15C15.8333 15.4583 15.4583 15.8333 15 15.8333H5C4.54167 15.8333 4.16667 15.4583 4.16667 15V13.3333C4.16667 12.875 3.79167 12.5 3.33333 12.5C2.875 12.5 2.5 12.875 2.5 13.3333V15.8333C2.5 16.75 3.25 17.5 4.16667 17.5H15.8333C16.75 17.5 17.5 16.75 17.5 15.8333V4.16667C17.5 3.25 16.75 2.5 15.8333 2.5Z" fill="#EB5757"/>
  </g>
  <defs>
    <clipPath id="clip0_570_373">
      <rect width="20" height="20" fill="white"/>
    </clipPath>
  </defs>
</svg>