<svg xmlns="http://www.w3.org/2000/svg" width="21" height="21" viewBox="0 0 21 21" fill="none">
  <g clip-path="url(#clip0_570_384)">
    <path d="M10.6435 2.18596C6.04354 2.18596 2.31021 5.91929 2.31021 10.5193C2.31021 15.1193 6.04354 18.8526 10.6435 18.8526C15.2435 18.8526 18.9769 15.1193 18.9769 10.5193C18.9769 5.91929 15.2435 2.18596 10.6435 2.18596ZM10.6435 4.68596C12.0269 4.68596 13.1435 5.80263 13.1435 7.18596C13.1435 8.56929 12.0269 9.68596 10.6435 9.68596C9.26021 9.68596 8.14354 8.56929 8.14354 7.18596C8.14354 5.80263 9.26021 4.68596 10.6435 4.68596ZM10.6435 16.5193C8.56021 16.5193 6.71854 15.4526 5.64354 13.836C5.66854 12.1776 8.97688 11.2693 10.6435 11.2693C12.3019 11.2693 15.6185 12.1776 15.6435 13.836C14.5685 15.4526 12.7269 16.5193 10.6435 16.5193Z" fill="#4F4F4F"/>
  </g>
  <defs>
    <clipPath id="clip0_570_384">
      <rect width="20" height="20" fill="white" transform="translate(0.643555 0.519287)"/>
    </clipPath>
  </defs>
</svg>